# xmcd
#
# Track frame offsets: 
#        150
#        17588
#        32785
#        53461
#        66897
#        81350
#        100325
#        116237
#        138605
#        152420
#        176061
#        193250
#        217635
#        233220
#        255910
#
# Disc length: 3677 seconds
#
# Revision: 0
# Processed by: cddbd v1.5.2PL0 Copyright (c) Steve Scherf et al.
# Submitted via: ExactAudioCopyFreeDBPlugin 1.0
#
DISCID=c60e5b0f
DTITLE=Unrestful Movements - Unrestful Movements
DYEAR=2011
DGENRE=New Zealand: Country/Blues
TTITLE0=No Job
TTITLE1=Israel - Egypt
TTITLE2=Depressed
TTITLE3=Started to Wonder
TTITLE4=Backstabbing Bastards
TTITLE5=Anti Trend
TTITLE6=A Band of Our Type
TTITLE7=Street Violence
TTITLE8=Plastic Bullets
TTITLE9=Work
TTITLE10=Really Different
TTITLE11=Internment
TTITLE12=Romantic Regurgitation
TTITLE13=I Am Greed
TTITLE14=Minds Eye
EXTD=
EXTT0=
EXTT1=
EXTT2=
EXTT3=
EXTT4=
EXTT5=
EXTT6=
EXTT7=
EXTT8=
EXTT9=
EXTT10=
EXTT11=
EXTT12=
EXTT13=
EXTT14=
PLAYORDER=
